<?xml version="1.0" encoding="utf-8"?>
<!-- Generator: Adobe Illustrator 22.1.0, SVG Export Plug-In . SVG Version: 6.00 Build 0)  -->
<svg version="1.1" xmlns="http://www.w3.org/2000/svg" xmlns:xlink="http://www.w3.org/1999/xlink" x="0px" y="0px"
	 viewBox="0 0 179.9 180.2" style="enable-background:new 0 0 179.9 180.2;" xml:space="preserve">
<style type="text/css">
	.st0{enable-background:new    ;}
	.st1{fill:#0000FF;}
	.st2{fill:#FFFFFF;}
	.st3{fill:url(#SVGID_1_);}
	.st4{fill:url(#SVGID_2_);}
	.st5{fill:url(#SVGID_3_);}
	.st6{fill:#DAFF00;}
	.st7{fill:#0000FF;stroke:#DAFF00;stroke-width:2;stroke-linecap:round;stroke-linejoin:round;stroke-miterlimit:10;}
	.st8{fill:url(#SVGID_4_);}
	.st9{fill:none;stroke:#0000FF;stroke-width:3.0272;stroke-miterlimit:10;}
	.st10{fill:none;stroke:url(#SVGID_5_);stroke-width:2.0309;stroke-linecap:round;stroke-linejoin:round;stroke-miterlimit:10;}
	.st11{fill:url(#SVGID_6_);}
	.st12{fill:url(#SVGID_7_);}
	.st13{fill:url(#SVGID_8_);}
	.st14{fill:url(#SVGID_9_);}
	.st15{fill:url(#SVGID_10_);}
	.st16{fill:url(#SVGID_11_);}
	.st17{fill:url(#SVGID_12_);}
	.st18{fill:url(#SVGID_13_);}
	.st19{fill:url(#SVGID_14_);}
	.st20{fill:url(#SVGID_15_);}
	.st21{fill:url(#SVGID_16_);}
	.st22{fill:url(#SVGID_17_);}
	.st23{fill:url(#SVGID_18_);}
	.st24{fill:url(#SVGID_19_);}
	.st25{fill:url(#SVGID_20_);}
	.st26{fill:url(#SVGID_21_);}
	.st27{fill:url(#SVGID_22_);}
	.st28{fill:url(#SVGID_23_);}
	.st29{fill:url(#SVGID_24_);}
	.st30{fill:url(#SVGID_25_);}
	.st31{fill:url(#SVGID_26_);}
	.st32{fill:url(#SVGID_27_);}
	.st33{fill:url(#SVGID_28_);}
	.st34{fill:url(#SVGID_29_);}
	.st35{fill:url(#SVGID_30_);}
	.st36{fill:url(#SVGID_31_);}
	.st37{fill:url(#SVGID_32_);}
	.st38{fill:url(#SVGID_33_);}
	.st39{fill:url(#SVGID_34_);}
	.st40{fill:url(#SVGID_35_);}
	.st41{fill:url(#SVGID_36_);}
	.st42{fill:url(#SVGID_37_);}
	.st43{fill:url(#SVGID_38_);}
	.st44{fill:url(#SVGID_39_);}
	.st45{fill:url(#SVGID_40_);}
	.st46{fill:url(#SVGID_41_);}
	.st47{fill:url(#SVGID_42_);}
	.st48{fill:url(#SVGID_43_);}
	.st49{fill:url(#SVGID_44_);}
	.st50{fill:url(#SVGID_45_);}
	.st51{fill:url(#SVGID_46_);}
	.st52{fill:url(#SVGID_47_);}
	.st53{fill:url(#SVGID_48_);}
	.st54{fill:url(#SVGID_49_);}
	.st55{fill:url(#SVGID_50_);}
	.st56{fill:url(#SVGID_51_);}
	.st57{fill:url(#SVGID_52_);}
	.st58{fill:url(#SVGID_53_);}
	.st59{fill:url(#SVGID_54_);}
	.st60{fill:url(#SVGID_55_);}
	.st61{fill:url(#SVGID_56_);}
	.st62{fill:url(#SVGID_57_);}
	.st63{fill:url(#SVGID_58_);}
	.st64{fill:url(#SVGID_59_);}
	.st65{fill:url(#SVGID_60_);}
	.st66{fill:url(#SVGID_61_);}
	.st67{fill:url(#SVGID_62_);}
	.st68{fill:url(#SVGID_63_);}
	.st69{fill:url(#SVGID_64_);}
	.st70{fill:url(#SVGID_65_);}
	.st71{fill:url(#SVGID_66_);}
	.st72{fill:url(#SVGID_67_);}
	.st73{fill:url(#SVGID_68_);}
	.st74{fill:url(#SVGID_69_);}
	.st75{fill:url(#SVGID_70_);}
	.st76{fill:url(#SVGID_71_);}
	.st77{fill:url(#SVGID_72_);}
	.st78{fill:url(#SVGID_73_);}
	.st79{fill:url(#SVGID_74_);}
	.st80{fill:url(#SVGID_75_);}
	.st81{fill:url(#SVGID_76_);}
	.st82{fill:url(#SVGID_77_);}
	.st83{fill:url(#SVGID_78_);}
	.st84{fill:url(#SVGID_79_);}
	.st85{fill:url(#SVGID_80_);}
	.st86{fill:url(#SVGID_81_);}
	.st87{fill:url(#SVGID_82_);}
	.st88{fill:url(#SVGID_83_);}
	.st89{fill:url(#SVGID_84_);}
	.st90{fill:url(#SVGID_85_);}
	.st91{fill:url(#SVGID_86_);}
	.st92{fill:url(#SVGID_87_);}
	.st93{fill:url(#SVGID_88_);}
	.st94{fill:url(#SVGID_89_);}
	.st95{fill:url(#SVGID_90_);}
	.st96{fill:url(#SVGID_91_);}
	.st97{fill:url(#SVGID_92_);}
	.st98{fill:url(#SVGID_93_);}
	.st99{fill:url(#SVGID_94_);}
	.st100{fill:url(#SVGID_95_);}
	.st101{fill:url(#SVGID_96_);}
	.st102{fill:url(#SVGID_97_);}
	.st103{fill:url(#SVGID_98_);}
	.st104{fill:url(#SVGID_99_);}
	.st105{fill:url(#SVGID_100_);}
	.st106{fill:url(#SVGID_101_);}
	.st107{fill:url(#SVGID_102_);}
	.st108{fill:url(#SVGID_103_);}
	.st109{fill:url(#SVGID_104_);}
	.st110{fill:url(#SVGID_105_);}
	.st111{fill:url(#SVGID_106_);}
	.st112{fill:url(#SVGID_107_);}
	.st113{fill:url(#SVGID_108_);}
	.st114{fill:url(#SVGID_109_);}
	.st115{fill:url(#SVGID_110_);}
	.st116{fill:url(#SVGID_111_);}
	.st117{fill:url(#SVGID_112_);}
	.st118{fill:url(#SVGID_113_);}
	.st119{fill:url(#SVGID_114_);}
	.st120{fill:url(#SVGID_115_);}
	.st121{fill:url(#SVGID_116_);}
	.st122{fill:url(#SVGID_117_);}
	.st123{fill:url(#SVGID_118_);}
	.st124{fill:url(#SVGID_119_);}
	.st125{fill:url(#SVGID_120_);}
	.st126{fill:url(#SVGID_121_);}
	.st127{fill:url(#SVGID_122_);}
	.st128{fill:url(#SVGID_123_);}
	.st129{fill:url(#SVGID_124_);}
	.st130{fill:url(#SVGID_125_);}
	.st131{fill:url(#SVGID_126_);}
	.st132{fill:url(#SVGID_127_);}
	.st133{fill:url(#SVGID_128_);}
	.st134{fill:url(#SVGID_129_);}
	.st135{fill:url(#SVGID_130_);}
	.st136{fill:url(#SVGID_131_);}
	.st137{fill:url(#SVGID_132_);}
	.st138{fill:url(#SVGID_133_);}
	.st139{fill:url(#SVGID_134_);}
	.st140{fill:url(#SVGID_135_);}
	.st141{fill:url(#SVGID_136_);}
	.st142{fill:url(#SVGID_137_);}
	.st143{fill:url(#SVGID_138_);}
	.st144{fill:url(#SVGID_139_);}
	.st145{fill:url(#SVGID_140_);}
	.st146{fill:url(#SVGID_141_);}
	.st147{fill:url(#SVGID_142_);}
	.st148{fill:url(#SVGID_143_);}
	.st149{fill:url(#SVGID_144_);}
	.st150{fill:url(#SVGID_145_);}
	.st151{fill:url(#SVGID_146_);}
	.st152{fill:url(#SVGID_147_);}
	.st153{fill:url(#SVGID_148_);}
	.st154{fill:url(#SVGID_149_);}
	.st155{fill:url(#SVGID_150_);}
	.st156{fill:url(#SVGID_151_);}
	.st157{fill:url(#SVGID_152_);}
	.st158{fill:url(#SVGID_153_);}
	.st159{fill:url(#SVGID_154_);}
	.st160{fill:url(#SVGID_155_);}
	.st161{fill:url(#SVGID_156_);}
	.st162{fill:url(#SVGID_157_);}
	.st163{fill:url(#SVGID_158_);}
	.st164{fill:url(#SVGID_159_);}
	.st165{fill:url(#SVGID_160_);}
	.st166{fill:url(#SVGID_161_);}
	.st167{fill:url(#SVGID_162_);}
	.st168{fill:url(#SVGID_163_);}
	.st169{fill:url(#SVGID_164_);}
	.st170{fill:url(#SVGID_165_);}
	.st171{fill:url(#SVGID_166_);}
	.st172{fill:url(#SVGID_167_);}
	.st173{fill:url(#SVGID_168_);}
	.st174{fill:url(#SVGID_169_);}
	.st175{fill:url(#SVGID_170_);}
	.st176{fill:url(#SVGID_171_);}
	.st177{fill:url(#SVGID_172_);}
	.st178{fill:url(#SVGID_173_);}
	.st179{fill:url(#SVGID_174_);}
	.st180{fill:url(#SVGID_175_);}
	.st181{fill:url(#SVGID_176_);}
	.st182{fill:url(#SVGID_177_);}
	.st183{fill:url(#SVGID_178_);}
	.st184{fill:url(#SVGID_179_);}
	.st185{fill:url(#SVGID_180_);}
	.st186{fill:url(#SVGID_181_);}
	.st187{fill:url(#SVGID_182_);}
	.st188{fill:url(#SVGID_183_);}
	.st189{fill:url(#SVGID_184_);}
	.st190{fill:url(#SVGID_185_);}
	.st191{fill:url(#SVGID_186_);}
	.st192{fill:url(#SVGID_187_);}
	.st193{fill:url(#SVGID_188_);}
	.st194{fill:url(#SVGID_189_);}
	.st195{fill:url(#SVGID_190_);}
	.st196{fill:url(#SVGID_191_);}
	.st197{fill:url(#SVGID_192_);}
	.st198{fill:url(#SVGID_193_);}
	.st199{fill:url(#SVGID_194_);}
</style>
<g id="Signe">
	<linearGradient id="SVGID_1_" gradientUnits="userSpaceOnUse" x1="22.2589" y1="89.6409" x2="155.5513" y2="89.6409">
		<stop  offset="0" style="stop-color:#0000FF"/>
		<stop  offset="0.512" style="stop-color:#4024E5"/>
		<stop  offset="1" style="stop-color:#8A61E6"/>
	</linearGradient>
	<path class="st3" d="M84.9,142.9l-22.5,18.8c-0.5,0.5-1.2,0.9-2.2,1.2c-1,0.3-2,0.5-3.2,0.5H30.2c-2.8,0-4.8-0.6-6.1-1.9
		c-1.3-1.3-1.9-3.3-1.9-6.1V42.8c0-1.5,0.2-2.8,0.6-3.8c0.4-1,1-1.9,1.8-2.6L47,17.5c0.6-0.5,1.4-0.8,2.3-1.1c1-0.3,2-0.4,3.2-0.4
		h26.8c2.8,0,4.8,0.6,6.1,1.9c1.3,1.3,1.9,3.3,1.9,6.1v36h3.1v-17c0-1.5,0.2-2.8,0.6-3.8c0.4-1,1-1.9,1.8-2.6l22.3-18.9
		c0.6-0.5,1.4-0.8,2.3-1.1c1-0.3,2-0.4,3.2-0.4h26.8c2.8,0,4.8,0.6,6.1,1.9c1.3,1.3,1.9,3.3,1.9,6.1v112.6c0,1.5-0.2,2.8-0.6,3.8
		c-0.4,1-1,1.9-1.8,2.6l-22.5,18.8c-0.5,0.5-1.2,0.9-2.2,1.2c-1,0.3-2.1,0.5-3.2,0.5H98.4c-2.8,0-4.8-0.6-6.1-1.9
		c-1.3-1.3-1.9-3.3-1.9-6.1v-36.8h-3.1v17.9c0,1.5-0.2,2.8-0.6,3.8C86.3,141.3,85.7,142.2,84.9,142.9z"/>
	<path class="st1" d="M125.3,164.8H98.4c-3.1,0-5.5-0.8-7-2.3c-1.5-1.5-2.3-3.9-2.3-7.1V120h-0.3v16.5c0,1.7-0.2,3.1-0.7,4.3
		c-0.5,1.3-1.2,2.3-2.2,3.2l0,0l-22.5,18.7c-0.6,0.6-1.5,1.1-2.6,1.5c-1.1,0.4-2.4,0.6-3.7,0.6H30.2c-3.1,0-5.5-0.8-7-2.3
		c-1.5-1.5-2.3-3.9-2.3-7.1V42.8c0-1.7,0.2-3.1,0.7-4.3c0.5-1.3,1.2-2.3,2.2-3.2l22.3-18.9c0.7-0.6,1.7-1.1,2.8-1.4
		c1.1-0.3,2.3-0.5,3.6-0.5h26.8c3.1,0,5.5,0.8,7,2.3c1.5,1.5,2.3,3.9,2.3,7.1v34.6h0.3V42.8c0-1.7,0.2-3.1,0.7-4.3
		c0.5-1.3,1.2-2.3,2.2-3.2l22.3-18.9c0.7-0.6,1.7-1.1,2.8-1.4c1.1-0.3,2.3-0.5,3.6-0.5h26.8c3.1,0,5.5,0.8,7,2.3
		c1.5,1.5,2.3,3.9,2.3,7.1v112.6c0,1.7-0.2,3.1-0.7,4.3c-0.5,1.3-1.2,2.3-2.2,3.2l-22.5,18.7c-0.6,0.6-1.5,1.1-2.6,1.5
		C127.8,164.6,126.6,164.8,125.3,164.8z M86,117.2h5.9v38.2c0,2.4,0.5,4.1,1.5,5.1c1,1,2.7,1.5,5.1,1.5h26.8c1,0,1.9-0.1,2.7-0.4
		c1-0.3,1.4-0.7,1.6-0.9l0.1-0.1l22.5-18.8c0.6-0.5,1.1-1.2,1.4-2c0.3-0.9,0.5-2,0.5-3.3V23.9c0-2.4-0.5-4.1-1.5-5.1
		c-1-1-2.7-1.5-5.1-1.5h-26.8c-1,0-2,0.1-2.8,0.4c-0.8,0.2-1.4,0.5-1.9,0.9L93.8,37.5c-0.6,0.5-1.1,1.2-1.4,2
		c-0.3,0.9-0.5,2-0.5,3.3v18.4H86V23.9c0-2.4-0.5-4.1-1.5-5.1c-1-1-2.7-1.5-5.1-1.5H52.6c-1,0-2,0.1-2.8,0.4
		c-0.8,0.2-1.4,0.5-1.9,0.9L25.6,37.5c-0.6,0.5-1.1,1.2-1.4,2c-0.3,0.9-0.5,2-0.5,3.3v112.6c0,2.4,0.5,4.1,1.5,5.1
		c1,1,2.7,1.5,5.1,1.5h26.8c1,0,1.9-0.1,2.7-0.4c1-0.3,1.4-0.7,1.6-0.9l0.1-0.1L84,141.8c0.6-0.5,1.1-1.2,1.4-2
		c0.3-0.9,0.5-2,0.5-3.3V117.2z"/>
	<path class="st2" d="M79.4,142.7c2.2,0,3.8-0.5,4.8-1.5c1-1,1.5-2.6,1.5-4.8V97.9h28.9v38.6c0,2.2,0.5,3.8,1.5,4.8
		c1,1,2.6,1.5,4.8,1.5h26.8c2.2,0,3.8-0.5,4.8-1.5c1-1,1.5-2.6,1.5-4.8V23.9c0-2.2-0.5-3.8-1.5-4.8c-1-1-2.6-1.5-4.8-1.5h-26.8
		c-2.2,0-3.8,0.5-4.8,1.5c-1,1-1.5,2.6-1.5,4.8v37.7H85.6V23.9c0-2.2-0.5-3.8-1.5-4.8c-1-1-2.6-1.5-4.8-1.5H52.6
		c-2.2,0-3.8,0.5-4.8,1.5c-1,1-1.5,2.6-1.5,4.8v112.6c0,2.2,0.5,3.8,1.5,4.8c1,1,2.6,1.5,4.8,1.5H79.4z"/>
	<linearGradient id="SVGID_2_" gradientUnits="userSpaceOnUse" x1="45.2772" y1="80.1738" x2="154.8643" y2="80.1738">
		<stop  offset="0" style="stop-color:#0000FF"/>
		<stop  offset="0.512" style="stop-color:#4024E5"/>
		<stop  offset="1" style="stop-color:#8A61E6"/>
	</linearGradient>
	<path class="st4" d="M147.6,143.8h-26.8c-2.5,0-4.3-0.6-5.5-1.8c-1.2-1.2-1.8-3-1.8-5.5V98.9H86.7v37.5c0,2.5-0.6,4.3-1.8,5.5
		c-1.2,1.2-3,1.8-5.5,1.8H52.6c-2.5,0-4.3-0.6-5.5-1.8c-1.2-1.2-1.8-3-1.8-5.5V23.9c0-2.5,0.6-4.3,1.8-5.5c1.2-1.2,3-1.8,5.5-1.8
		h26.8c2.5,0,4.3,0.6,5.5,1.8c1.2,1.2,1.8,3,1.8,5.5v36.6h26.8V23.9c0-2.5,0.6-4.3,1.8-5.5c1.2-1.2,3-1.8,5.5-1.8h26.8
		c2.5,0,4.3,0.6,5.5,1.8c1.2,1.2,1.8,3,1.8,5.5v112.6c0,2.5-0.6,4.3-1.8,5.5C151.9,143.2,150.1,143.8,147.6,143.8z M84.6,96.8h31
		v39.6c0,1.9,0.4,3.3,1.2,4c0.8,0.8,2.1,1.2,4,1.2h26.8c1.9,0,3.2-0.4,4-1.2c0.8-0.8,1.2-2.1,1.2-4V23.9c0-1.9-0.4-3.3-1.2-4
		c-0.8-0.8-2.1-1.2-4-1.2h-26.8c-1.9,0-3.2,0.4-4,1.2c-0.8,0.8-1.2,2.1-1.2,4v38.7h-31V23.9c0-1.9-0.4-3.3-1.2-4
		c-0.8-0.8-2.1-1.2-4-1.2H52.6c-1.9,0-3.2,0.4-4,1.2c-0.8,0.8-1.2,2.1-1.2,4v112.6c0,1.9,0.4,3.3,1.2,4c0.8,0.8,2.1,1.2,4,1.2h26.8
		c1.9,0,3.2-0.4,4-1.2c0.8-0.8,1.2-2.1,1.2-4V96.8z"/>
	<linearGradient id="SVGID_3_" gradientUnits="userSpaceOnUse" x1="45.2772" y1="80.1738" x2="154.8643" y2="80.1738">
		<stop  offset="0" style="stop-color:#0000FF"/>
		<stop  offset="0.512" style="stop-color:#4024E5"/>
		<stop  offset="1" style="stop-color:#8A61E6"/>
	</linearGradient>
	<path class="st5" d="M147.6,143.8h-26.8c-2.5,0-4.3-0.6-5.5-1.8c-1.2-1.2-1.8-3-1.8-5.5V98.9H86.7v37.5c0,2.5-0.6,4.3-1.8,5.5
		c-1.2,1.2-3,1.8-5.5,1.8H52.6c-2.5,0-4.3-0.6-5.5-1.8c-1.2-1.2-1.8-3-1.8-5.5V23.9c0-2.5,0.6-4.3,1.8-5.5c1.2-1.2,3-1.8,5.5-1.8
		h26.8c2.5,0,4.3,0.6,5.5,1.8c1.2,1.2,1.8,3,1.8,5.5v36.6h26.8V23.9c0-2.5,0.6-4.3,1.8-5.5c1.2-1.2,3-1.8,5.5-1.8h26.8
		c2.5,0,4.3,0.6,5.5,1.8c1.2,1.2,1.8,3,1.8,5.5v112.6c0,2.5-0.6,4.3-1.8,5.5C151.9,143.2,150.1,143.8,147.6,143.8z M84.6,96.8h31
		v39.6c0,1.9,0.4,3.3,1.2,4c0.8,0.8,2.1,1.2,4,1.2h26.8c1.9,0,3.2-0.4,4-1.2c0.8-0.8,1.2-2.1,1.2-4V23.9c0-1.9-0.4-3.3-1.2-4
		c-0.8-0.8-2.1-1.2-4-1.2h-26.8c-1.9,0-3.2,0.4-4,1.2c-0.8,0.8-1.2,2.1-1.2,4v38.7h-31V23.9c0-1.9-0.4-3.3-1.2-4
		c-0.8-0.8-2.1-1.2-4-1.2H52.6c-1.9,0-3.2,0.4-4,1.2c-0.8,0.8-1.2,2.1-1.2,4v112.6c0,1.9,0.4,3.3,1.2,4c0.8,0.8,2.1,1.2,4,1.2h26.8
		c1.9,0,3.2-0.4,4-1.2c0.8-0.8,1.2-2.1,1.2-4V96.8z"/>
</g>
<g id="Effet_miroir">
	<g>
		<linearGradient id="SVGID_4_" gradientUnits="userSpaceOnUse" x1="52.4021" y1="33.758" x2="77.8048" y2="33.758">
			<stop  offset="0" style="stop-color:#0000FF"/>
			<stop  offset="0.512" style="stop-color:#4024E5"/>
			<stop  offset="1" style="stop-color:#8A61E6"/>
		</linearGradient>
		<path class="st8" d="M53.4,42c-0.4,0-0.7-0.2-0.9-0.5c-0.3-0.5-0.1-1.1,0.3-1.4l23.3-14.3c0.5-0.3,1.1-0.1,1.4,0.3
			c0.3,0.5,0.1,1.1-0.3,1.4L54,41.8C53.8,41.9,53.6,42,53.4,42z"/>
		<linearGradient id="SVGID_5_" gradientUnits="userSpaceOnUse" x1="55.4316" y1="26.4251" x2="66.0498" y2="26.4251">
			<stop  offset="0" style="stop-color:#0000FF"/>
			<stop  offset="0.512" style="stop-color:#4024E5"/>
			<stop  offset="1" style="stop-color:#8A61E6"/>
		</linearGradient>
		<path style="fill:url(#SVGID_5_);" d="M56.5,30.1c-0.4,0-0.7-0.2-0.9-0.5c-0.3-0.5-0.1-1.1,0.3-1.4l8.5-5.2
			c0.5-0.3,1.1-0.1,1.4,0.3c0.3,0.5,0.1,1.1-0.3,1.4L57,29.9C56.9,30,56.7,30.1,56.5,30.1z"/>
		<linearGradient id="SVGID_6_" gradientUnits="userSpaceOnUse" x1="63.7832" y1="41.0908" x2="74.4014" y2="41.0908">
			<stop  offset="0" style="stop-color:#0000FF"/>
			<stop  offset="0.512" style="stop-color:#4024E5"/>
			<stop  offset="1" style="stop-color:#8A61E6"/>
		</linearGradient>
		<path class="st11" d="M64.8,44.8c-0.4,0-0.7-0.2-0.9-0.5c-0.3-0.5-0.1-1.1,0.3-1.4l8.5-5.2c0.5-0.3,1.1-0.1,1.4,0.3
			c0.3,0.5,0.1,1.1-0.3,1.4l-8.5,5.2C65.2,44.7,65,44.8,64.8,44.8z"/>
	</g>
	<g>
		<linearGradient id="SVGID_7_" gradientUnits="userSpaceOnUse" x1="122.6942" y1="121.7532" x2="148.0973" y2="121.7532">
			<stop  offset="0" style="stop-color:#0000FF"/>
			<stop  offset="0.512" style="stop-color:#4024E5"/>
			<stop  offset="1" style="stop-color:#8A61E6"/>
		</linearGradient>
		<path class="st12" d="M123.7,130c-0.4,0-0.7-0.2-0.9-0.5c-0.3-0.5-0.1-1.1,0.3-1.4l23.3-14.3c0.5-0.3,1.1-0.1,1.4,0.3
			s0.1,1.1-0.3,1.4l-23.3,14.3C124.1,129.9,123.9,130,123.7,130z"/>
		<linearGradient id="SVGID_8_" gradientUnits="userSpaceOnUse" x1="125.7242" y1="114.4203" x2="136.3424" y2="114.4203">
			<stop  offset="0" style="stop-color:#0000FF"/>
			<stop  offset="0.512" style="stop-color:#4024E5"/>
			<stop  offset="1" style="stop-color:#8A61E6"/>
		</linearGradient>
		<path class="st13" d="M126.8,118.1c-0.4,0-0.7-0.2-0.9-0.5c-0.3-0.5-0.1-1.1,0.3-1.4l8.5-5.2c0.5-0.3,1.1-0.1,1.4,0.3
			c0.3,0.5,0.1,1.1-0.3,1.4l-8.5,5.2C127.1,118,127,118.1,126.8,118.1z"/>
		<linearGradient id="SVGID_9_" gradientUnits="userSpaceOnUse" x1="134.0753" y1="129.086" x2="144.6935" y2="129.086">
			<stop  offset="0" style="stop-color:#0000FF"/>
			<stop  offset="0.512" style="stop-color:#4024E5"/>
			<stop  offset="1" style="stop-color:#8A61E6"/>
		</linearGradient>
		<path class="st14" d="M135.1,132.8c-0.4,0-0.7-0.2-0.9-0.5c-0.3-0.5-0.1-1.1,0.3-1.4l8.5-5.2c0.5-0.3,1.1-0.1,1.4,0.3
			c0.3,0.5,0.1,1.1-0.3,1.4l-8.5,5.2C135.5,132.7,135.3,132.8,135.1,132.8z"/>
	</g>
	<linearGradient id="SVGID_10_" gradientUnits="userSpaceOnUse" x1="126.5222" y1="38.3845" x2="154.8643" y2="38.3845">
		<stop  offset="0" style="stop-color:#0000FF"/>
		<stop  offset="0.512" style="stop-color:#4024E5"/>
		<stop  offset="1" style="stop-color:#8A61E6"/>
	</linearGradient>
	<path class="st15" d="M127.6,47.9c-0.3,0-0.7-0.2-0.9-0.5c-0.3-0.5-0.2-1.1,0.3-1.4L153.3,29c0.5-0.3,1.1-0.2,1.4,0.3
		c0.3,0.5,0.2,1.1-0.3,1.4l-26.3,16.9C128,47.8,127.8,47.9,127.6,47.9z"/>
	<linearGradient id="SVGID_11_" gradientUnits="userSpaceOnUse" x1="56.2294" y1="47.2013" x2="61.798" y2="47.2013">
		<stop  offset="0" style="stop-color:#0000FF"/>
		<stop  offset="0.512" style="stop-color:#4024E5"/>
		<stop  offset="1" style="stop-color:#8A61E6"/>
	</linearGradient>
	<path class="st16" d="M57.3,49.3c-0.4,0-0.7-0.2-0.9-0.5c-0.3-0.5-0.1-1.1,0.4-1.4l3.5-2.1c0.5-0.3,1.1-0.1,1.4,0.4
		c0.3,0.5,0.1,1.1-0.4,1.4l-3.5,2.1C57.6,49.2,57.5,49.3,57.3,49.3z"/>
	<linearGradient id="SVGID_12_" gradientUnits="userSpaceOnUse" x1="117.4746" y1="121.229" x2="123.0424" y2="121.229">
		<stop  offset="0" style="stop-color:#0000FF"/>
		<stop  offset="0.512" style="stop-color:#4024E5"/>
		<stop  offset="1" style="stop-color:#8A61E6"/>
	</linearGradient>
	<path class="st17" d="M118.5,123.3c-0.4,0-0.7-0.2-0.9-0.5c-0.3-0.5-0.1-1.1,0.4-1.4l3.5-2.1c0.5-0.3,1.1-0.1,1.4,0.4
		c0.3,0.5,0.1,1.1-0.4,1.4l-3.5,2.1C118.9,123.3,118.7,123.3,118.5,123.3z"/>
	<g>
		<linearGradient id="SVGID_13_" gradientUnits="userSpaceOnUse" x1="71.493" y1="85.0867" x2="77.0615" y2="85.0867">
			<stop  offset="0" style="stop-color:#0000FF"/>
			<stop  offset="0.512" style="stop-color:#4024E5"/>
			<stop  offset="1" style="stop-color:#8A61E6"/>
		</linearGradient>
		<path class="st18" d="M72.5,87.1c-0.4,0-0.7-0.2-0.9-0.5c-0.3-0.5-0.1-1.1,0.4-1.4l3.5-2.1c0.5-0.3,1.1-0.1,1.4,0.4
			c0.3,0.5,0.1,1.1-0.4,1.4L73.1,87C72.9,87.1,72.7,87.1,72.5,87.1z"/>
		<linearGradient id="SVGID_14_" gradientUnits="userSpaceOnUse" x1="47.3655" y1="96.1143" x2="69.2133" y2="96.1143">
			<stop  offset="0" style="stop-color:#0000FF"/>
			<stop  offset="0.512" style="stop-color:#4024E5"/>
			<stop  offset="1" style="stop-color:#8A61E6"/>
		</linearGradient>
		<path class="st19" d="M47.4,103.9l21.4-13.6c0.5-0.3,0.6-0.9,0.3-1.4c-0.3-0.5-1-0.6-1.4-0.3l-20.2,12.9"/>
	</g>
</g>
</svg>
